<?xml version="1.0" standalone="no"?>
<!DOCTYPE svg PUBLIC "-//W3C//DTD SVG 20010904//EN"
 "http://www.w3.org/TR/2001/REC-SVG-20010904/DTD/svg10.dtd">
<svg version="1.0" xmlns="http://www.w3.org/2000/svg"
 width="1151.000000pt" height="367.000000pt" viewBox="0 0 1151.000000 367.000000"
 preserveAspectRatio="xMidYMid meet">
<metadata>
Created by potrace 1.16, written by Peter Selinger 2001-2019
</metadata>
<g transform="translate(0.000000,367.000000) scale(0.100000,-0.100000)"
fill="#000000" stroke="none">
<path d="M1301 2709 c-104 -20 -220 -70 -321 -139 -72 -49 -196 -180 -242
-256 -269 -441 -102 -1023 357 -1244 142 -69 212 -84 375 -84 145 0 225 16
345 69 71 31 178 102 228 151 30 30 37 43 37 75 0 52 -27 79 -79 79 -32 0 -49
-8 -91 -44 -66 -56 -163 -108 -260 -137 -94 -29 -243 -31 -340 -6 -98 25 -222
92 -291 156 l-61 56 174 278 173 279 6 -164 c7 -219 30 -268 124 -268 80 0
103 26 281 320 l69 114 6 -95 c10 -154 28 -206 91 -266 46 -44 96 -63 169 -63
107 0 206 65 251 164 31 71 31 250 0 378 -79 319 -320 563 -634 638 -89 21
-281 26 -367 9z m339 -170 c124 -34 204 -82 305 -184 137 -137 201 -277 212
-466 7 -120 -12 -175 -73 -204 -34 -16 -41 -16 -64 -4 -48 27 -60 70 -60 219
0 158 -10 202 -56 248 -32 32 -38 34 -83 30 -85 -8 -116 -43 -277 -308 l-69
-114 -5 210 c-6 238 -10 254 -79 275 -32 9 -44 9 -75 -6 -39 -19 -53 -39 -321
-473 -83 -135 -141 -220 -147 -214 -5 5 -20 41 -33 81 -92 270 -17 558 196
754 77 73 197 137 294 161 92 22 246 20 335 -5z"/>
<path d="M3185 2207 c-121 -31 -213 -109 -268 -225 -30 -62 -32 -75 -32 -173
0 -101 1 -108 38 -181 102 -207 345 -285 550 -176 100 54 129 108 86 162 -28
36 -59 33 -132 -11 -57 -36 -65 -38 -142 -38 -72 0 -86 3 -123 28 -147 97
-147 337 -1 434 33 22 57 28 110 31 60 4 76 0 137 -28 64 -29 72 -31 98 -18
79 37 60 122 -38 172 -47 23 -72 29 -145 32 -51 2 -109 -2 -138 -9z"/>
<path d="M4299 2191 c-83 -83 32 -213 124 -141 51 40 43 126 -14 155 -43 23
-77 18 -110 -14z"/>
<path d="M9016 2210 c-111 -28 -225 -123 -274 -228 -24 -51 -27 -68 -27 -172
0 -106 2 -120 28 -172 60 -122 168 -205 300 -229 114 -21 249 17 330 93 43 41
47 72 16 112 -27 34 -63 34 -120 -3 -65 -41 -113 -54 -180 -49 -73 5 -130 42
-174 113 -27 44 -30 56 -30 134 0 69 5 94 22 127 64 120 198 157 332 94 66
-31 90 -32 124 -2 27 24 22 84 -8 115 -48 47 -112 69 -210 73 -49 2 -107 -1
-129 -6z"/>
<path d="M5227 2203 c-4 -3 -7 -170 -7 -369 l0 -363 24 -27 c30 -36 86 -39
119 -6 21 21 22 33 27 203 l5 180 87 -94 c48 -52 97 -97 109 -100 24 -6 42 9
162 141 l57 63 0 -180 c0 -175 1 -181 24 -207 30 -36 86 -39 119 -6 22 23 22
23 22 395 l0 372 -26 3 c-23 3 -48 -20 -190 -179 l-163 -182 -25 30 c-234 275
-317 354 -344 326z"/>
<path d="M7209 2191 l-24 -19 -3 -350 -3 -350 24 -28 c31 -36 87 -39 120 -6
19 19 23 37 27 114 l5 91 94 -107 c52 -59 103 -112 113 -117 25 -13 85 6 98
31 24 45 12 76 -65 166 l-74 87 74 83 c85 96 92 119 46 165 -52 51 -67 44
-194 -96 l-97 -105 0 205 c0 205 0 206 -25 230 -30 31 -83 33 -116 6z"/>
<path d="M8389 2191 c-21 -17 -24 -29 -27 -110 l-4 -91 -32 0 c-43 0 -76 -32
-76 -74 0 -44 31 -76 74 -76 l34 0 4 -148 c3 -128 7 -153 27 -195 31 -64 76
-87 169 -87 59 0 72 3 90 23 49 52 10 127 -64 127 -23 0 -37 6 -44 19 -5 11
-10 74 -10 140 l0 121 49 0 c42 0 53 4 71 27 44 56 3 123 -76 123 l-44 0 0 85
c0 78 -2 88 -25 110 -30 31 -83 33 -116 6z"/>
<path d="M6260 1981 c-74 -24 -122 -66 -161 -141 -20 -38 -24 -60 -24 -140 0
-84 3 -101 27 -146 34 -64 95 -118 154 -134 62 -18 153 -8 207 22 l44 25 9
-21 c13 -30 76 -34 103 -7 20 20 21 32 21 259 0 199 -3 241 -16 260 -27 39
-114 22 -114 -23 0 -10 -15 -5 -49 17 -39 23 -64 31 -113 34 -35 2 -74 0 -88
-5z m168 -196 c76 -83 22 -225 -86 -225 -87 0 -143 131 -89 211 47 70 118 76
175 14z"/>
<path d="M9650 1981 c-74 -24 -122 -66 -161 -141 -20 -38 -24 -60 -24 -140 0
-84 3 -101 27 -146 34 -64 95 -118 154 -134 62 -18 153 -8 207 22 l44 25 9
-21 c13 -30 76 -34 103 -7 20 20 21 32 21 259 0 274 -2 282 -71 282 -36 0 -42
-4 -52 -29 l-10 -28 -48 30 c-37 22 -62 30 -111 33 -35 2 -74 0 -88 -5z m141
-166 c40 -21 69 -71 69 -118 0 -111 -112 -176 -189 -111 -87 73 -40 242 67
244 13 0 36 -7 53 -15z"/>
<path d="M3794 1956 c-128 -60 -194 -196 -159 -329 28 -109 104 -187 207 -214
67 -17 93 -16 158 3 75 22 162 109 184 184 44 147 -18 296 -149 356 -70 33
-170 33 -241 0z m171 -142 c78 -37 88 -165 19 -229 -70 -65 -194 6 -194 112 0
42 32 94 71 115 41 22 61 23 104 2z"/>
<path d="M4324 1968 c-39 -19 -44 -49 -44 -278 0 -216 0 -219 24 -246 30 -36
86 -39 119 -6 21 22 22 28 22 258 l0 236 -28 24 c-30 25 -58 29 -93 12z"/>
<path d="M4602 1964 c-22 -15 -22 -18 -22 -255 0 -138 4 -248 10 -259 24 -45
115 -43 138 3 6 12 12 88 14 169 3 130 5 150 24 174 25 35 60 45 104 30 53
-17 60 -42 60 -208 0 -140 1 -148 24 -174 30 -36 86 -39 119 -6 20 21 22 33
25 161 5 225 -22 310 -118 359 -38 20 -57 23 -127 20 -66 -2 -87 -7 -112 -25
l-30 -23 -25 25 c-29 29 -52 31 -84 9z"/>
<path d="M6792 1964 c-22 -15 -22 -18 -22 -255 0 -138 4 -248 10 -259 23 -43
117 -43 140 0 6 10 10 76 10 147 0 197 15 224 125 240 32 4 52 13 65 31 26 32
25 53 -2 87 -20 25 -25 27 -87 23 -49 -2 -75 -9 -98 -26 l-32 -22 -25 25 c-29
29 -52 31 -84 9z"/>
<path d="M7824 1956 c-94 -44 -137 -125 -138 -261 -1 -77 3 -98 25 -146 41
-87 117 -135 232 -146 90 -8 169 11 212 52 30 28 35 38 29 62 -14 58 -33 62
-166 34 -55 -12 -101 -1 -135 31 -12 12 -23 30 -23 40 0 17 12 18 158 18 201
0 207 3 200 99 -6 80 -33 136 -88 183 -50 43 -98 58 -186 58 -52 0 -82 -6
-120 -24z"/>
<path d="M10182 1964 l-22 -15 0 -360 c0 -212 4 -368 10 -378 16 -31 65 -46
100 -31 17 7 35 21 40 31 6 10 10 66 10 124 0 98 2 107 18 100 55 -21 138 -36
170 -30 205 38 289 324 146 494 -67 80 -207 105 -312 56 l-52 -24 -25 24 c-28
29 -51 31 -83 9z m318 -149 c105 -54 67 -254 -48 -255 -124 -1 -168 184 -60
250 39 24 69 25 108 5z"/>
</g>
</svg>
